# Blender 4.4.0
# www.blender.org
mtllib cheese.mtl
o cheese
v -5.245370 -0.000002 -1.888844
v -5.551586 -0.000002 -0.354761
v -5.849725 0.912906 -0.366676
v -5.525235 0.912906 -1.992303
v -2.289299 -0.000002 4.534679
v -0.755217 -0.000002 4.840897
v -0.767131 0.912906 5.139034
v -2.392759 0.912906 4.814545
v 0.798406 -0.000002 4.658066
v 0.879206 0.912906 4.945295
v 2.219494 -0.000002 4.004089
v 2.385097 0.912906 4.252291
v 3.368939 -0.000001 2.942980
v 3.603135 0.912907 3.127861
v 4.134224 -0.000002 1.578606
v 4.414089 0.912906 1.682068
v 4.440439 -0.000002 0.044525
v 4.738578 0.912906 0.056438
v 4.257610 -0.000002 -1.509100
v 4.544838 0.912906 -1.589899
v 3.603632 -0.000001 -2.930186
v 3.851834 0.912907 -3.095790
v 2.542522 -0.000001 -4.079631
v 2.727402 0.912907 -4.313827
v 1.178148 -0.000001 -4.844915
v 1.281608 0.912907 -5.124782
v -0.355934 -0.000001 -5.151130
v -0.344021 0.912907 -5.449268
v -1.909559 -0.000001 -4.968299
v -1.990358 0.912907 -5.255527
v -3.330646 -0.000001 -4.314320
v -3.496249 0.912907 -4.562522
v -4.480089 -0.000001 -3.253210
v -4.714286 0.912907 -3.438090
v -5.849725 3.087090 -0.366676
v -5.525235 3.087090 -1.992302
v -0.767131 3.087090 5.139034
v -2.392759 3.087090 4.814545
v 0.879206 3.087090 4.945295
v 2.385097 3.087090 4.252291
v 3.603135 3.087091 3.127861
v 4.414089 3.087090 1.682068
v 4.738578 3.087090 0.056438
v 4.544838 3.087090 -1.589899
v 3.851834 3.087091 -3.095789
v 2.727402 3.087091 -4.313826
v 1.281608 3.087091 -5.124781
v -0.344021 3.087091 -5.449267
v -1.990358 3.087091 -5.255527
v -3.496249 3.087091 -4.562521
v -4.714286 3.087091 -3.438089
v -5.551586 3.999998 -0.354761
v -5.245370 3.999998 -1.888843
v -0.755217 3.999998 4.840897
v -2.289299 3.999998 4.534679
v 0.798406 3.999998 4.658066
v 2.219494 3.999998 4.004089
v 3.368939 3.999999 2.942980
v 4.134224 3.999998 1.578606
v 4.440439 3.999998 0.044525
v 4.257610 3.999998 -1.509100
v 3.603632 3.999999 -2.930185
v 2.542522 3.999999 -4.079630
v 1.178148 3.999999 -4.844914
v -0.355934 3.999999 -5.151129
v -1.909559 3.999999 -4.968298
v -3.330646 3.999999 -4.314319
v -4.480089 3.999999 -3.253209
v -4.855287 -0.261102 -1.744637
v -5.136032 -0.261102 -0.338156
v -2.145092 -0.261102 4.144598
v -0.738611 -0.261102 4.425343
v 0.685787 -0.261102 4.257721
v 1.988673 -0.261102 3.658140
v 3.042510 -0.261101 2.685289
v 3.744142 -0.261102 1.434402
v 4.024887 -0.261102 0.027920
v 3.857264 -0.261102 -1.396479
v 3.257682 -0.261101 -2.699365
v 2.284832 -0.261101 -3.753202
v 1.033943 -0.261101 -4.454832
v -0.372539 -0.261101 -4.735577
v -1.796938 -0.261101 -4.567954
v -3.099823 -0.261101 -3.968369
v -4.153659 -0.261101 -2.995520
v -0.558223 -0.460755 -0.153116
v -5.136032 4.261098 -0.338156
v -4.855287 4.261098 -1.744637
v -0.738611 4.261098 4.425343
v -2.145092 4.261097 4.144598
v 0.685787 4.261098 4.257721
v 1.988673 4.261097 3.658140
v 3.042510 4.261097 2.685289
v 3.744142 4.261097 1.434402
v 4.024887 4.261098 0.027920
v 3.857264 4.261098 -1.396479
v 3.257682 4.261098 -2.699364
v 2.284832 4.261098 -3.753201
v 1.033943 4.261098 -4.454831
v -0.372539 4.261099 -4.735576
v -1.796938 4.261098 -4.567953
v -3.099823 4.261098 -3.968369
v -4.153659 4.261098 -2.995519
v -0.555572 4.462537 -0.155117
vn -0.7883 -0.5948 -0.1574
vn -0.9266 -0.1549 -0.3426
vn -0.7507 -0.5996 -0.2775
vn -0.0320 -0.5996 0.7997
vn -0.1934 -0.1531 0.9691
vn -0.1574 -0.5948 0.7883
vn 0.2167 -0.5995 0.7704
vn -0.0394 -0.1549 0.9871
vn 0.4442 -0.5996 0.6658
vn 0.2675 -0.1549 0.9510
vn 0.6282 -0.5996 0.4959
vn 0.5483 -0.1549 0.8218
vn 0.9266 -0.1549 0.3426
vn 0.7754 -0.1549 0.6121
vn 0.7997 -0.5996 0.0320
vn 0.7507 -0.5996 0.2775
vn 0.9510 -0.1549 -0.2675
vn 0.9871 -0.1549 0.0394
vn 0.7704 -0.5996 -0.2167
vn 0.8218 -0.1549 -0.5483
vn 0.6657 -0.5996 -0.4442
vn 0.6121 -0.1549 -0.7754
vn 0.2775 -0.5996 -0.7507
vn 0.4959 -0.5995 -0.6282
vn 0.0320 -0.5996 -0.7997
vn 0.3426 -0.1549 -0.9266
vn -0.2167 -0.5996 -0.7704
vn 0.0394 -0.1549 -0.9871
vn -0.5483 -0.1549 -0.8218
vn -0.2675 -0.1549 -0.9510
vn -0.4442 -0.5996 -0.6657
vn -0.7754 -0.1549 -0.6121
vn -0.6282 -0.5996 -0.4959
vn -0.9691 -0.1530 -0.1934
vn -0.9266 0.1549 -0.3426
vn -0.1934 0.1530 0.9691
vn -0.0394 0.1549 0.9871
vn 0.2675 0.1549 0.9510
vn 0.5483 0.1549 0.8218
vn 0.7754 0.1549 0.6121
vn 0.9266 0.1549 0.3426
vn 0.9871 0.1549 0.0394
vn 0.9510 0.1549 -0.2675
vn 0.8218 0.1549 -0.5483
vn 0.6121 0.1549 -0.7754
vn 0.3426 0.1549 -0.9266
vn 0.0394 0.1549 -0.9871
vn -0.2675 0.1549 -0.9510
vn -0.5483 0.1549 -0.8218
vn -0.7754 0.1549 -0.6121
vn -0.7883 0.5948 -0.1574
vn -0.7507 0.5995 -0.2775
vn -0.1574 0.5948 0.7883
vn 0.2167 0.5996 0.7704
vn -0.0320 0.5996 0.7997
vn 0.4442 0.5995 0.6658
vn 0.6282 0.5996 0.4959
vn 0.7507 0.5995 0.2775
vn 0.7997 0.5996 0.0320
vn 0.7704 0.5995 -0.2167
vn 0.6657 0.5996 -0.4442
vn 0.4959 0.5996 -0.6282
vn 0.0320 0.5996 -0.7997
vn 0.2775 0.5996 -0.7507
vn -0.2167 0.5996 -0.7704
vn -0.4442 0.5996 -0.6658
vn -0.6282 0.5996 -0.4959
vn -0.3006 -0.9473 -0.1111
vn -0.3177 -0.9461 -0.0634
vn -0.0634 -0.9461 0.3177
vn -0.0128 -0.9473 0.3202
vn 0.0868 -0.9473 0.3085
vn 0.1778 -0.9473 0.2666
vn 0.2515 -0.9473 0.1985
vn 0.3006 -0.9473 0.1111
vn 0.3202 -0.9473 0.0128
vn 0.3085 -0.9473 -0.0868
vn 0.2665 -0.9473 -0.1778
vn 0.1985 -0.9473 -0.2515
vn 0.1111 -0.9473 -0.3005
vn 0.0128 -0.9473 -0.3202
vn -0.0868 -0.9473 -0.3085
vn -0.1778 -0.9473 -0.2666
vn -0.2515 -0.9473 -0.1986
vn 0.0086 -0.9999 -0.0057
vn -0.3179 0.9460 -0.0635
vn -0.3007 0.9472 -0.1112
vn -0.0635 0.9460 0.3179
vn -0.0128 0.9472 0.3203
vn 0.0868 0.9472 0.3086
vn 0.2516 0.9472 0.1987
vn 0.1779 0.9472 0.2667
vn 0.3203 0.9472 0.0128
vn 0.3007 0.9472 0.1112
vn 0.2667 0.9472 -0.1779
vn 0.3086 0.9472 -0.0868
vn 0.1987 0.9472 -0.2516
vn 0.0128 0.9472 -0.3203
vn 0.1112 0.9472 -0.3007
vn -0.0868 0.9472 -0.3086
vn -0.1779 0.9472 -0.2667
vn -0.2516 0.9472 -0.1987
vn 0.0087 0.9999 -0.0058
vn -0.9380 0.0002 -0.3466
vn -0.9381 -0.0002 -0.3464
vn -0.9380 0.0001 -0.3465
vn -0.0401 0.0002 0.9992
vn -0.0399 -0.0000 0.9992
vn -0.0403 -0.0001 0.9992
vn -0.9691 0.1531 -0.1934
vn -0.9380 -0.0000 -0.3467
vn -0.9380 0.0004 -0.3467
vn -0.9381 -0.0007 -0.3463
vn -0.0404 -0.0008 0.9992
vn -0.0399 0.0004 0.9992
vt 0.887667 0.295874
vt 0.843132 0.218650
vt 0.887667 0.218650
vt 0.545522 0.992312
vt 0.622256 0.946974
vt 0.622256 0.992312
vt 0.476299 0.992312
vt 0.540943 0.946974
vt 0.912709 0.107198
vt 0.987607 0.062600
vt 0.985437 0.107198
vt 0.666572 0.537138
vt 0.621275 0.457685
vt 0.666572 0.466565
vt 0.621275 0.615369
vt 0.621275 0.532470
vt 0.666572 0.693600
vt 0.666572 0.615369
vt 0.621275 0.773053
vt 0.621275 0.698268
vt 0.870173 0.959073
vt 0.796828 0.915399
vt 0.872298 0.915399
vt 0.666099 0.072485
vt 0.621179 0.137839
vt 0.621179 0.063679
vt 0.666099 0.220046
vt 0.666099 0.142468
vt 0.666099 0.297623
vt 0.621179 0.220046
vt 0.666099 0.367606
vt 0.621179 0.302252
vt 0.871270 0.366677
vt 0.795666 0.321658
vt 0.873460 0.321658
vt 0.887667 0.071763
vt 0.843132 0.136819
vt 0.843132 0.062998
vt 0.887667 0.141428
vt 0.843132 0.300482
vt 0.737069 0.218650
vt 0.622256 0.838996
vt 0.467589 0.946974
vt 0.540943 0.838996
vt 0.513393 0.398336
vt 0.621275 0.398336
vt 0.513393 0.457685
vt 0.513393 0.532470
vt 0.513393 0.615369
vt 0.513393 0.698268
vt 0.514199 0.004826
vt 0.621179 0.004826
vt 0.514199 0.063679
vt 0.514199 0.137839
vt 0.514199 0.220046
vt 0.621179 0.376412
vt 0.514199 0.302252
vt 0.737069 0.004413
vt 0.843132 0.004413
vt 0.737069 0.062998
vt 0.737069 0.136819
vt 0.692535 0.295874
vt 0.692535 0.218650
vt 0.622256 0.793658
vt 0.476299 0.793658
vt 0.545522 0.793658
vt 0.995815 0.042690
vt 0.913521 0.002937
vt 0.993430 0.002937
vt 0.468095 0.466565
vt 0.468095 0.537138
vt 0.468095 0.615369
vt 0.513393 0.773053
vt 0.468095 0.693600
vt 0.689351 0.955026
vt 0.772506 0.914857
vt 0.774915 0.955026
vt 0.469280 0.072485
vt 0.469280 0.142468
vt 0.469280 0.297623
vt 0.469280 0.220046
vt 0.469280 0.367606
vt 0.689351 0.361957
vt 0.772506 0.321788
vt 0.774916 0.361957
vt 0.692535 0.071763
vt 0.692535 0.141428
vt 0.436205 0.898694
vt 0.370570 0.935046
vt 0.420184 0.886565
vt 0.388203 0.558664
vt 0.424256 0.624844
vt 0.376175 0.574818
vt 0.321605 0.523110
vt 0.315116 0.542222
vt 0.247055 0.530246
vt 0.247369 0.510048
vt 0.178656 0.540063
vt 0.172765 0.520756
vt 0.116613 0.570712
vt 0.105093 0.554186
vt 0.066999 0.619193
vt 0.050978 0.607065
vt 0.034672 0.680761
vt 0.015718 0.674218
vt 0.002764 0.749070
vt 0.022795 0.749387
vt 0.013384 0.824296
vt 0.032532 0.818356
vt 0.062928 0.880915
vt 0.046537 0.892531
vt 0.111009 0.930941
vt 0.098981 0.947095
vt 0.172068 0.963537
vt 0.165579 0.982649
vt 0.240128 0.975513
vt 0.239814 0.995711
vt 0.314419 0.985003
vt 0.308528 0.965695
vt 0.382090 0.951573
vt 0.243751 0.752873
vt 0.061654 0.437748
vt 0.026477 0.372060
vt 0.073685 0.421877
vt 0.070730 0.049482
vt 0.032522 0.113431
vt 0.016757 0.101320
vt 0.137972 0.016972
vt 0.082006 0.065905
vt 0.211903 0.006972
vt 0.143655 0.036099
vt 0.278714 0.039299
vt 0.211436 0.026931
vt 0.350933 0.056120
vt 0.285284 0.020462
vt 0.386110 0.121808
vt 0.338902 0.071991
vt 0.434716 0.178152
vt 0.402424 0.110457
vt 0.424823 0.252111
vt 0.415716 0.183873
vt 0.431249 0.326457
vt 0.444648 0.252581
vt 0.395829 0.392549
vt 0.412538 0.319843
vt 0.330581 0.427963
vt 0.380064 0.380437
vt 0.341857 0.444387
vt 0.268932 0.457769
vt 0.274614 0.476897
vt 0.201151 0.466937
vt 0.200684 0.486896
vt 0.133873 0.454569
vt 0.127303 0.473406
vt 0.206293 0.246934
vt 0.689846 0.399181
vt 0.926985 0.421046
vt 0.941144 0.567542
vt 0.722720 0.884338
vt 0.689666 0.827213
vt 0.703474 0.676999
vt 0.910539 0.062600
vt 0.666572 0.764173
vt 0.798953 0.959073
vt 0.797856 0.366677
vt 0.737069 0.300482
vt 0.467589 0.838996
vt 0.514199 0.376412
vt 0.911137 0.042690
vt 0.468095 0.764173
vt 0.691760 0.914857
vt 0.691760 0.321788
vt 0.440646 0.613228
vt 0.010163 0.383412
vt 0.926985 0.610863
vt 0.907250 0.623253
vt 0.689713 0.632813
vt 0.907250 0.408656
vt 0.941144 0.464367
vt 0.722720 0.664295
vt 0.934771 0.654580
vt 0.934859 0.894140
vt 0.703474 0.871633
vt 0.689666 0.721420
s 1
usemtl cheese03Mat
f 2/1/1 4/2/2 1/3/3
f 6/4/4 8/5/5 5/6/6
f 9/7/7 7/8/8 6/4/4
f 11/9/9 10/10/10 9/11/7
f 13/12/11 12/13/12 11/14/9
f 13/12/11 16/15/13 14/16/14
f 17/17/15 16/15/13 15/18/16
f 17/17/15 20/19/17 18/20/18
f 19/21/19 22/22/20 20/23/17
f 21/24/21 24/25/22 22/26/20
f 25/27/23 24/25/22 23/28/24
f 27/29/25 26/30/26 25/27/23
f 29/31/27 28/32/28 27/29/25
f 29/33/27 32/34/29 30/35/30
f 31/36/31 34/37/32 32/38/29
f 33/39/33 4/2/2 34/37/32
f 3/40/34 36/41/35 4/2/2
f 7/8/8 38/42/36 8/5/5
f 10/43/10 37/44/37 7/8/8
f 12/13/12 39/45/38 10/46/10
f 14/16/14 40/47/39 12/13/12
f 16/15/13 41/48/40 14/16/14
f 18/20/18 42/49/41 16/15/13
f 20/19/17 43/50/42 18/20/18
f 22/26/20 44/51/43 20/52/17
f 24/25/22 45/53/44 22/26/20
f 26/30/26 46/54/45 24/25/22
f 28/32/28 47/55/46 26/30/26
f 30/56/30 48/57/47 28/32/28
f 32/38/29 49/58/48 30/59/30
f 34/37/32 50/60/49 32/38/29
f 34/37/32 36/41/35 51/61/50
f 36/41/35 52/62/51 53/63/52
f 37/44/37 55/64/53 38/42/36
f 37/44/37 56/65/54 54/66/55
f 39/67/38 57/68/56 56/69/54
f 41/48/40 57/70/56 40/47/39
f 42/49/41 58/71/57 41/48/40
f 43/50/42 59/72/58 42/49/41
f 44/73/43 60/74/59 43/50/42
f 45/75/44 61/76/60 44/77/43
f 46/54/45 62/78/61 45/53/44
f 47/55/46 63/79/62 46/54/45
f 47/55/46 65/80/63 64/81/64
f 48/57/47 66/82/65 65/80/63
f 50/83/49 66/84/65 49/85/48
f 51/61/50 67/86/66 50/60/49
f 51/61/50 53/63/52 68/87/67
f 2/88/1 69/89/68 70/90/69
f 6/91/4 71/92/70 72/93/71
f 9/94/7 72/93/71 73/95/72
f 9/94/7 74/96/73 11/97/9
f 11/97/9 75/98/74 13/99/11
f 13/99/11 76/100/75 15/101/16
f 15/101/16 77/102/76 17/103/15
f 17/103/15 78/104/77 19/105/19
f 21/106/21 78/104/77 79/107/78
f 23/108/24 79/107/78 80/109/79
f 23/108/24 81/110/80 25/111/23
f 25/111/23 82/112/81 27/113/25
f 27/113/25 83/114/82 29/115/27
f 29/115/27 84/116/83 31/117/31
f 33/118/33 84/116/83 85/119/84
f 1/120/3 85/119/84 69/89/68
f 70/90/69 69/89/68 86/121/85
f 72/93/71 71/92/70 86/121/85
f 73/95/72 72/93/71 86/121/85
f 74/96/73 73/95/72 86/121/85
f 75/98/74 74/96/73 86/121/85
f 76/100/75 75/98/74 86/121/85
f 77/102/76 76/100/75 86/121/85
f 78/104/77 77/102/76 86/121/85
f 79/107/78 78/104/77 86/121/85
f 80/109/79 79/107/78 86/121/85
f 81/110/80 80/109/79 86/121/85
f 82/112/81 81/110/80 86/121/85
f 83/114/82 82/112/81 86/121/85
f 84/116/83 83/114/82 86/121/85
f 85/119/84 84/116/83 86/121/85
f 69/89/68 85/119/84 86/121/85
f 53/122/52 87/123/86 88/124/87
f 54/125/55 90/126/88 55/127/53
f 56/128/54 89/129/89 54/125/55
f 57/130/56 91/131/90 56/128/54
f 57/130/56 93/132/91 92/133/92
f 59/134/58 93/132/91 58/135/57
f 59/134/58 95/136/93 94/137/94
f 61/138/60 95/136/93 60/139/59
f 61/138/60 97/140/95 96/141/96
f 63/142/62 97/140/95 62/143/61
f 64/144/64 98/145/97 63/142/62
f 64/144/64 100/146/98 99/147/99
f 65/148/63 101/149/100 100/146/98
f 66/150/65 102/151/101 101/149/100
f 67/152/66 103/153/102 102/151/101
f 53/122/52 103/153/102 68/154/67
f 88/124/87 87/123/86 104/155/103
f 90/126/88 89/129/89 104/155/103
f 89/129/89 91/131/90 104/155/103
f 91/131/90 92/133/92 104/155/103
f 92/133/92 93/132/91 104/155/103
f 93/132/91 94/137/94 104/155/103
f 94/137/94 95/136/93 104/155/103
f 95/136/93 96/141/96 104/155/103
f 96/141/96 97/140/95 104/155/103
f 97/140/95 98/145/97 104/155/103
f 98/145/97 99/147/99 104/155/103
f 99/147/99 100/146/98 104/155/103
f 100/146/98 101/149/100 104/155/103
f 101/149/100 102/151/101 104/155/103
f 102/151/101 103/153/102 104/155/103
f 103/153/102 88/124/87 104/155/103
f 86/156/104 5/157/105 38/158/106
f 87/159/107 35/160/108 2/161/109
f 2/1/1 3/40/34 4/2/2
f 6/4/4 7/8/8 8/5/5
f 9/7/7 10/43/10 7/8/8
f 11/9/9 12/162/12 10/10/10
f 13/12/11 14/16/14 12/13/12
f 13/12/11 15/18/16 16/15/13
f 17/17/15 18/20/18 16/15/13
f 17/17/15 19/163/19 20/19/17
f 19/21/19 21/164/21 22/22/20
f 21/24/21 23/28/24 24/25/22
f 25/27/23 26/30/26 24/25/22
f 27/29/25 28/32/28 26/30/26
f 29/31/27 30/56/30 28/32/28
f 29/33/27 31/165/31 32/34/29
f 31/36/31 33/39/33 34/37/32
f 33/39/33 1/3/3 4/2/2
f 3/40/34 35/166/110 36/41/35
f 7/8/8 37/44/37 38/42/36
f 10/43/10 39/167/38 37/44/37
f 12/13/12 40/47/39 39/45/38
f 14/16/14 41/48/40 40/47/39
f 16/15/13 42/49/41 41/48/40
f 18/20/18 43/50/42 42/49/41
f 20/19/17 44/73/43 43/50/42
f 22/26/20 45/53/44 44/51/43
f 24/25/22 46/54/45 45/53/44
f 26/30/26 47/55/46 46/54/45
f 28/32/28 48/57/47 47/55/46
f 30/56/30 49/168/48 48/57/47
f 32/38/29 50/60/49 49/58/48
f 34/37/32 51/61/50 50/60/49
f 34/37/32 4/2/2 36/41/35
f 36/41/35 35/166/110 52/62/51
f 37/44/37 54/66/55 55/64/53
f 37/44/37 39/167/38 56/65/54
f 39/67/38 40/169/39 57/68/56
f 41/48/40 58/71/57 57/70/56
f 42/49/41 59/72/58 58/71/57
f 43/50/42 60/74/59 59/72/58
f 44/73/43 61/170/60 60/74/59
f 45/75/44 62/171/61 61/76/60
f 46/54/45 63/79/62 62/78/61
f 47/55/46 64/81/64 63/79/62
f 47/55/46 48/57/47 65/80/63
f 48/57/47 49/168/48 66/82/65
f 50/83/49 67/172/66 66/84/65
f 51/61/50 68/87/67 67/86/66
f 51/61/50 36/41/35 53/63/52
f 2/88/1 1/120/3 69/89/68
f 6/91/4 5/173/6 71/92/70
f 9/94/7 6/91/4 72/93/71
f 9/94/7 73/95/72 74/96/73
f 11/97/9 74/96/73 75/98/74
f 13/99/11 75/98/74 76/100/75
f 15/101/16 76/100/75 77/102/76
f 17/103/15 77/102/76 78/104/77
f 21/106/21 19/105/19 78/104/77
f 23/108/24 21/106/21 79/107/78
f 23/108/24 80/109/79 81/110/80
f 25/111/23 81/110/80 82/112/81
f 27/113/25 82/112/81 83/114/82
f 29/115/27 83/114/82 84/116/83
f 33/118/33 31/117/31 84/116/83
f 1/120/3 33/118/33 85/119/84
f 53/122/52 52/174/51 87/123/86
f 54/125/55 89/129/89 90/126/88
f 56/128/54 91/131/90 89/129/89
f 57/130/56 92/133/92 91/131/90
f 57/130/56 58/135/57 93/132/91
f 59/134/58 94/137/94 93/132/91
f 59/134/58 60/139/59 95/136/93
f 61/138/60 96/141/96 95/136/93
f 61/138/60 62/143/61 97/140/95
f 63/142/62 98/145/97 97/140/95
f 64/144/64 99/147/99 98/145/97
f 64/144/64 65/148/63 100/146/98
f 65/148/63 66/150/65 101/149/100
f 66/150/65 67/152/66 102/151/101
f 67/152/66 68/154/67 103/153/102
f 53/122/52 88/124/87 103/153/102
f 38/158/106 55/175/111 90/176/104
f 90/176/104 104/177/112 86/156/104
f 86/156/104 71/178/113 5/157/105
f 5/157/105 8/179/111 38/158/106
f 38/158/106 90/176/104 86/156/104
f 2/161/109 70/180/114 86/181/107
f 86/181/107 104/182/115 87/159/107
f 87/159/107 52/183/108 35/160/108
f 35/160/108 3/184/108 2/161/109
f 2/161/109 86/181/107 87/159/107
